<svg width="11" height="12" viewBox="0 0 11 12" fill="none" xmlns="http://www.w3.org/2000/svg">
<path d="M4.8838 4.88108L4.12507 4.1088L5.11413 3.11974H3.2986C3.21731 3.35459 3.09085 3.55782 2.91923 3.72944C2.74762 3.90105 2.54439 4.02751 2.30954 4.1088V8.63409C2.62568 8.75151 2.88545 8.94788 3.08886 9.22319C3.29192 9.49886 3.39344 9.81283 3.39344 10.1651C3.39344 10.6167 3.23537 11.0006 2.91923 11.3167C2.6031 11.6329 2.21921 11.7909 1.76759 11.7909C1.31596 11.7909 0.932083 11.6329 0.615945 11.3167C0.299808 11.0006 0.141739 10.6167 0.141739 10.1651C0.141739 9.81283 0.243264 9.49886 0.446315 9.22319C0.649727 8.94788 0.909502 8.75151 1.22564 8.63409V4.1088C0.909502 3.99138 0.649727 3.79483 0.446315 3.51916C0.243264 3.24385 0.141739 2.93006 0.141739 2.57779C0.141739 2.12617 0.299808 1.74228 0.615945 1.42615C0.932083 1.11001 1.31596 0.95194 1.76759 0.95194C2.11986 0.95194 2.43383 1.05347 2.7095 1.25652C2.98481 1.45993 3.18118 1.7197 3.2986 2.03584H5.11413L4.12507 1.04678L4.8838 0.274502L7.18709 2.57779L4.8838 4.88108ZM9.35489 0.95194C9.80652 0.95194 10.1904 1.11001 10.5065 1.42615C10.8227 1.74228 10.9807 2.12617 10.9807 2.57779C10.9807 3.02942 10.8227 3.4133 10.5065 3.72944C10.1904 4.04557 9.80652 4.20364 9.35489 4.20364C8.90327 4.20364 8.51939 4.04557 8.20325 3.72944C7.88711 3.4133 7.72904 3.02942 7.72904 2.57779C7.72904 2.12617 7.88711 1.74228 8.20325 1.42615C8.51939 1.11001 8.90327 0.95194 9.35489 0.95194ZM7.40387 6.58822L9.69361 8.87796L6.78063 11.7909H4.47734V9.48766L7.40387 6.58822ZM10.2762 8.30892L7.95937 5.99208L8.36583 5.59916C8.58261 5.38238 8.84239 5.27399 9.14516 5.27399C9.44757 5.27399 9.70265 5.38238 9.91039 5.59916L10.6691 6.37144C10.8769 6.57919 10.9807 6.8321 10.9807 7.13017C10.9807 7.42825 10.8769 7.68116 10.6691 7.8889L10.2762 8.30892Z" fill="black"/>
</svg>
