<svg width="8" height="5" viewBox="0 0 8 5" fill="none" xmlns="http://www.w3.org/2000/svg">
<path fill-rule="evenodd" clip-rule="evenodd" d="M6.9217 1.82886C7.1596 1.82886 7.38776 1.92337 7.55599 2.09159C7.72421 2.25981 7.81872 2.48798 7.81872 2.72588C7.81872 2.96379 7.72421 3.19195 7.55599 3.36017C7.38776 3.52839 7.1596 3.6229 6.9217 3.6229C6.68379 3.6229 6.45563 3.52839 6.28741 3.36017C6.11918 3.19195 6.02467 2.96379 6.02467 2.72588C6.02467 2.48798 6.11918 2.25981 6.28741 2.09159C6.45563 1.92337 6.68379 1.82886 6.9217 1.82886ZM2.95641 1.03051C2.89342 1.09358 2.85804 1.17908 2.85804 1.26822C2.85804 1.35736 2.89342 1.44286 2.95641 1.50593L3.83998 2.3895H0.978931C0.889716 2.3895 0.804156 2.42494 0.741072 2.48802C0.677988 2.55111 0.642548 2.63667 0.642548 2.72588C0.642548 2.81509 0.677988 2.90066 0.741072 2.96374C0.804156 3.02682 0.889716 3.06226 0.978931 3.06226H3.83998L2.95641 3.94583C2.897 4.0096 2.86465 4.09394 2.86618 4.18108C2.86772 4.26823 2.90303 4.35138 2.96466 4.41301C3.02629 4.47464 3.10944 4.50994 3.19658 4.51148C3.28373 4.51302 3.36807 4.48067 3.43183 4.42125L4.88949 2.96359L5.12765 2.72588L4.88994 2.48817L3.43228 1.03051C3.40104 0.999252 3.36395 0.974455 3.32313 0.957536C3.2823 0.940618 3.23854 0.93191 3.19435 0.93191C3.15016 0.93191 3.1064 0.940618 3.06557 0.957536C3.02474 0.974455 2.98765 0.999252 2.95641 1.03051Z" fill="black"/>
</svg>
