<svg width="27" height="11" viewBox="0 0 27 11" fill="none" xmlns="http://www.w3.org/2000/svg">
<path d="M5.58062 5.61942C6.02794 5.66196 6.40369 5.87465 6.72576 6.27877C7.04783 6.6829 7.20886 7.23591 7.20886 7.9378C7.20886 8.78858 6.97625 9.49048 6.49315 10.0009C6.01005 10.5114 5.33013 10.7667 4.4176 10.7667H0.0159912V0.684875H4.3997C5.16909 0.684875 5.79534 0.94011 6.26055 1.42931C6.72576 1.93978 6.95836 2.59914 6.95836 3.42865C6.95836 4.06674 6.81522 4.55594 6.51104 4.93879C6.20687 5.32164 5.90269 5.51307 5.56273 5.55561L5.58062 5.61942ZM2.10944 4.85371H3.93449C4.23867 4.85371 4.48917 4.74736 4.68599 4.53467C4.86491 4.32197 4.97227 4.06674 4.97227 3.70515C4.97227 3.38611 4.88281 3.15215 4.70388 2.96072C4.52495 2.76929 4.29235 2.68422 4.02396 2.68422H2.10944V4.85371ZM4.04185 8.76731C4.36392 8.76731 4.63231 8.66097 4.81124 8.46954C4.99016 8.27811 5.07963 8.00161 5.07963 7.64003C5.07963 7.29971 4.99016 7.04448 4.79334 6.85305C4.61442 6.66163 4.36392 6.55528 4.07764 6.55528H2.10944V8.76731H4.04185ZM14.4554 10.7667H12.4335V10.0435C11.9325 10.6816 11.2705 11.0006 10.4832 11.0006C9.73173 11.0006 9.14127 10.7028 8.69395 10.1286C8.24664 9.55429 8.01403 8.78858 8.01403 7.85272V3.21595H10.018V7.34225C10.018 7.78891 10.1254 8.1505 10.3222 8.427C10.519 8.7035 10.7874 8.83112 11.1095 8.83112C11.521 8.83112 11.8431 8.66097 12.0757 8.32065C12.3083 7.98034 12.4156 7.4486 12.4156 6.72543V3.21595H14.4375L14.4554 10.7667ZM20.7 10.7667H15.3321V10.32L17.855 5.13022H15.4037V3.21595H20.6642V3.66262L18.1413 8.85239H20.6821V10.7667H20.7ZM26.9266 10.7667H21.5767V10.32L24.0817 5.13022H21.6304V3.21595H26.8908V3.66262L24.368 8.85239H26.9087L26.9266 10.7667Z" fill="#718087"/>
</svg>
