<svg width="32" height="9" viewBox="0 0 32 9" fill="none" xmlns="http://www.w3.org/2000/svg">
<path d="M11.0607 0.783376V4.00628H7.87084V0.783376L6.70905 0.781921V8.90822H7.87084V5.41713H11.0607V8.90822H12.2244V0.783376H11.0607Z" fill="#718087"/>
<path d="M26.5165 0.783569V8.90648H31.6136L30.968 7.47645H27.6816V5.41732H30.8639V4.03996H27.6816V2.1801H30.9625L31.595 0.783569H26.5165Z" fill="#718087"/>
<path d="M2.3905 0.781311C1.18198 0.781311 0.571594 1.81548 0.571594 3.32027V6.35362C0.571594 8.09503 1.35819 8.9081 2.38447 8.9081L6.02953 8.90762L5.35379 7.42225H2.60966C2.02669 7.42225 1.77271 7.12566 1.77271 6.20726V3.45521C1.77271 2.56739 1.98651 2.22105 2.62517 2.22105H5.38242L6.03125 0.781311H2.3905Z" fill="#718087"/>
<path d="M21.4177 0.779406C20.7198 0.779406 20.0044 1.36991 20.0044 2.88877V3.27904C20.0044 4.86246 20.6927 5.46656 21.3813 5.47069H23.7986C24.0496 5.47069 24.2536 5.52942 24.2536 6.12672L24.2532 6.81673C24.2469 7.35336 24.0567 7.47617 23.7899 7.47617H20.6099L19.9585 8.9062H23.8648C24.8067 8.9062 25.4463 8.24652 25.4463 6.72281V6.16288C25.4463 4.68966 24.8521 3.99357 23.9308 3.99357H21.6227C21.3669 3.99357 21.1886 3.89527 21.1886 3.3618V2.79994C21.1886 2.34559 21.3108 2.17982 21.6089 2.17982L24.6374 2.17813L25.2704 0.777466L21.4177 0.779406Z" fill="#718087"/>
<path d="M15.6 0.783569L12.8627 8.90793H14.1564L14.6896 7.2301H17.6641L18.1955 8.90793H19.4949L16.7513 0.783569H15.6ZM16.174 2.47038L17.2258 5.84716H15.1289L16.174 2.47038Z" fill="#718087"/>
</svg>
