<svg width="20" height="12" viewBox="0 0 20 12" fill="none" xmlns="http://www.w3.org/2000/svg">
<path d="M13.1496 9.05236C12.9391 8.91464 12.7032 8.84309 12.4637 8.8443C11.9366 8.8443 11.5709 9.2866 11.5709 9.88363C11.5709 10.4627 11.9208 10.9239 12.4637 10.9239C12.703 10.9246 12.9387 10.8535 13.1496 10.7171V11.763C12.9087 11.852 12.6585 11.8986 12.4066 11.9014C11.4895 11.9014 10.6846 11.1389 10.6846 9.88311C10.6846 8.71981 11.4129 7.86642 12.4066 7.86642C12.6587 7.86722 12.9093 7.91438 13.1496 8.00628V9.05236ZM4.63941 9.05236C4.42934 8.91437 4.19373 8.8428 3.95453 8.8443C3.42641 8.8443 3.06098 9.2866 3.06098 9.88363C3.06098 10.4627 3.41119 10.9239 3.95453 10.9239C4.19354 10.9249 4.42896 10.8538 4.63941 10.7171V11.763C4.39835 11.8523 4.14781 11.8989 3.89563 11.9014C2.97937 11.9014 2.17543 11.1389 2.17543 9.88311C2.17543 8.71981 2.90372 7.86642 3.8959 7.86642C4.1482 7.86697 4.39895 7.91414 4.63941 8.00628V9.05236ZM15.7143 8.85896C15.6027 8.85767 15.4921 8.88336 15.3889 8.9345C15.2857 8.98565 15.1921 9.06122 15.1135 9.15674C15.0349 9.25227 14.973 9.36581 14.9314 9.49067C14.8898 9.61553 14.8694 9.74918 14.8714 9.88372C14.8693 10.0183 14.8896 10.152 14.9312 10.277C14.9727 10.402 15.0346 10.5156 15.1132 10.6113C15.1918 10.7069 15.2855 10.7825 15.3887 10.8337C15.492 10.8849 15.6027 10.9106 15.7143 10.9093C15.8259 10.9106 15.9367 10.8848 16.0399 10.8336C16.1432 10.7824 16.2369 10.7068 16.3155 10.6112C16.3941 10.5156 16.4561 10.402 16.4977 10.277C16.5393 10.1521 16.5597 10.0183 16.5578 9.88372C16.5596 9.74916 16.5391 9.61551 16.4974 9.49067C16.4558 9.36583 16.3938 9.25232 16.3152 9.15681C16.2366 9.06131 16.143 8.98574 16.0397 8.93459C15.9365 8.88344 15.8259 8.85772 15.7143 8.85896ZM17.4216 9.88372C17.4216 10.9984 16.7081 11.9016 15.7146 11.9016C14.7211 11.9016 14.008 10.9984 14.008 9.88338C14.008 8.77082 14.7208 7.86667 15.7143 7.86667C16.7078 7.86667 17.4216 8.77074 17.4216 9.88372ZM9.66735 8.82156C9.65522 8.81694 9.31198 8.70255 9.02996 8.70255C8.70328 8.70255 8.52559 8.83462 8.52559 9.02184C8.52559 9.2592 8.76527 9.34198 8.89928 9.39309L9.12423 9.47939C9.65365 9.68233 9.8946 10.1194 9.8946 10.5941C9.8946 11.573 9.1808 11.9019 8.55684 11.9019C8.26149 11.8985 7.96701 11.8628 7.67699 11.7954V10.8986C7.74877 10.9204 8.09072 11.0438 8.44685 11.0438C8.85255 11.0438 9.03903 10.9005 9.03903 10.68C9.03903 10.4825 8.87763 10.3685 8.6754 10.2919C8.62633 10.272 8.55194 10.2439 8.50134 10.224C8.04734 10.0508 7.66872 9.72877 7.66872 9.08405C7.66872 8.35528 8.1212 7.86592 8.8727 7.86592C9.14065 7.87033 9.40729 7.91191 9.66735 7.98986V8.82156Z" fill="#666666"/>
<path d="M6.57547 11.8328H5.76017V7.93592H6.57547V11.8328Z" fill="#666666"/>
<path d="M1.1918 3.40421C1.26766 3.49536 1.31044 3.61909 1.31076 3.74825L1.3108 4.77109C1.30813 4.89842 1.26431 5.01948 1.18868 5.10841C1.11305 5.19735 1.0116 5.2471 0.905979 5.24708C0.800354 5.2471 0.698903 5.19735 0.623274 5.10841C0.547645 5.01948 0.503823 4.89842 0.50116 4.77109V3.74791C0.501585 3.61877 0.54445 3.49513 0.620356 3.40405C0.696263 3.31298 0.799019 3.2619 0.906094 3.26205C1.01318 3.26194 1.11593 3.31307 1.1918 3.40421Z" fill="#666666"/>
<path d="M3.50325 2.2192C3.5236 2.27843 3.53407 2.34191 3.53407 2.40603V4.77127C3.53407 4.90074 3.49142 5.02495 3.4155 5.1165C3.33958 5.20805 3.23661 5.25949 3.12925 5.25949C3.02189 5.25949 2.91892 5.20805 2.843 5.1165C2.76708 5.02495 2.72443 4.90074 2.72443 4.77127V2.40603C2.72443 2.34191 2.7349 2.27843 2.75525 2.2192C2.77559 2.15996 2.80541 2.10616 2.843 2.06082C2.88059 2.01549 2.92522 1.97952 2.97433 1.955C3.02345 1.93047 3.07609 1.91786 3.12925 1.91786C3.18241 1.91786 3.23505 1.93047 3.28416 1.955C3.33328 1.97952 3.3779 2.01549 3.4155 2.06082C3.45309 2.10616 3.48291 2.15996 3.50325 2.2192Z" fill="#666666"/>
<path d="M5.63868 0.224891C5.71455 0.316103 5.75733 0.439859 5.75764 0.569043V5.74339C5.75496 5.87072 5.71113 5.99175 5.63551 6.08067C5.55988 6.16958 5.45844 6.21933 5.35283 6.21933C5.24721 6.21933 5.14577 6.16958 5.07014 6.08067C4.99452 5.99175 4.95069 5.87072 4.94801 5.74339V0.569043C4.94833 0.439814 4.99115 0.316013 5.06706 0.224801C5.14297 0.133589 5.24579 0.0824425 5.35294 0.0825326C5.46006 0.0824875 5.56282 0.133679 5.63868 0.224891Z" fill="#666666"/>
<path d="M7.95025 2.21913C7.97057 2.2784 7.981 2.34189 7.98095 2.40603L7.98111 2.40534V4.77086C7.98111 4.90034 7.93845 5.02454 7.86254 5.11609C7.78662 5.20764 7.68365 5.25908 7.57629 5.25908C7.46892 5.25908 7.36596 5.20764 7.29004 5.11609C7.21412 5.02454 7.17147 4.90034 7.17147 4.77086V2.40561C7.17147 2.34149 7.18194 2.27802 7.20229 2.21879C7.22263 2.15956 7.25245 2.10573 7.29004 2.0604C7.32763 2.01506 7.37226 1.97912 7.42137 1.95459C7.47049 1.93006 7.52313 1.91743 7.57629 1.91743C7.62946 1.91745 7.68211 1.93011 7.73123 1.95468C7.78035 1.97925 7.82498 2.01524 7.86256 2.06062C7.90014 2.106 7.92994 2.15985 7.95025 2.21913Z" fill="#666666"/>
<path d="M10.0842 3.40471C10.1596 3.49587 10.202 3.61945 10.2019 3.74825V4.77109C10.2019 4.90016 10.1594 5.02396 10.0837 5.11522C10.0081 5.20647 9.90543 5.25775 9.79841 5.25775C9.69139 5.25775 9.58875 5.20647 9.51308 5.11522C9.4374 5.02396 9.39489 4.90016 9.39489 4.77109V3.74791C9.3953 3.61882 9.43812 3.4952 9.51397 3.40412C9.58983 3.31304 9.69252 3.26196 9.79956 3.26205C9.90636 3.26223 10.0087 3.31354 10.0842 3.40471Z" fill="#666666"/>
<path d="M12.3045 2.06981C12.3799 2.15845 12.4236 2.2791 12.4263 2.40603V4.77127C12.4263 4.83518 12.4158 4.89845 12.3956 4.9575C12.3753 5.01655 12.3456 5.0702 12.3081 5.1154C12.2706 5.1606 12.2261 5.19643 12.1772 5.22089C12.1282 5.24535 12.0757 5.25794 12.0228 5.25794C11.9157 5.25791 11.8131 5.20663 11.7374 5.11537C11.6618 5.02412 11.6192 4.90034 11.6192 4.77127V2.40603C11.6219 2.2791 11.6656 2.15845 11.741 2.06981C11.8164 1.98117 11.9175 1.93155 12.0228 1.93155C12.128 1.93155 12.2291 1.98117 12.3045 2.06981Z" fill="#666666"/>
<path d="M14.5329 0.224936C14.6086 0.316193 14.6511 0.439972 14.6511 0.569043V5.74339C14.6543 5.83122 14.6377 5.91845 14.6031 5.99583C14.5685 6.07321 14.5172 6.13785 14.4546 6.18289C14.392 6.22798 14.3205 6.25179 14.2476 6.25179C14.1747 6.25179 14.1031 6.22798 14.0405 6.18289C13.9779 6.13783 13.9266 6.07319 13.8921 5.99581C13.8575 5.91842 13.8409 5.83122 13.8441 5.74339V0.569043C13.8441 0.439972 13.8866 0.316193 13.9623 0.224936C14.0379 0.133679 14.1406 0.0823975 14.2476 0.0823975C14.3546 0.0823975 14.4572 0.133679 14.5329 0.224936Z" fill="#666666"/>
<path d="M16.844 2.2185C16.8646 2.27789 16.8753 2.34162 16.8755 2.40603V4.77127C16.8754 4.83572 16.8648 4.89955 16.8442 4.95903C16.8236 5.01851 16.7934 5.07249 16.7555 5.11783C16.7175 5.16316 16.6724 5.19897 16.6229 5.22321C16.5733 5.24744 16.5203 5.25958 16.4669 5.25895C16.4138 5.2589 16.3613 5.24625 16.3123 5.22172C16.2633 5.19719 16.2188 5.16123 16.1814 5.11594C16.1439 5.07065 16.1142 5.01691 16.094 4.95777C16.0738 4.89863 16.0634 4.83525 16.0635 4.77127V2.40572C16.0635 2.27667 16.106 2.15287 16.1816 2.06159C16.2573 1.97031 16.3599 1.91898 16.4669 1.91892C16.5203 1.91833 16.5732 1.93047 16.6227 1.95468C16.6722 1.97889 16.7172 2.01465 16.7552 2.05992C16.7932 2.10519 16.8234 2.15911 16.844 2.2185Z" fill="#666666"/>
<path d="M18.9774 3.40378C19.0531 3.49515 19.0957 3.61904 19.0957 3.74825L19.0954 4.77113C19.0955 4.83514 19.0851 4.89856 19.0648 4.95772C19.0446 5.01689 19.0149 5.07069 18.9774 5.116C18.9399 5.16132 18.8954 5.19728 18.8464 5.22186C18.7974 5.24643 18.7448 5.25911 18.6918 5.25917C18.6387 5.25913 18.5861 5.24647 18.5371 5.22192C18.488 5.19737 18.4435 5.16139 18.406 5.11607C18.3685 5.07076 18.3387 5.01698 18.3185 4.95779C18.2982 4.8986 18.2878 4.83516 18.2879 4.77113V3.74825C18.2879 3.61904 18.3304 3.49515 18.4062 3.40378C18.4819 3.31241 18.5846 3.26111 18.6918 3.26109C18.7989 3.26111 18.9016 3.31241 18.9774 3.40378Z" fill="#666666"/>
<path d="M18.6289 11.3803H18.4848H18.6289Z" fill="#666666"/>
<path d="M18.4848 11.3803V11.8323V11.3803Z" fill="#666666"/>
<path d="M18.4848 11.8323H18.4254H18.4848Z" fill="#666666"/>
<path d="M18.4254 11.8323V11.3806V11.8323Z" fill="#666666"/>
<path d="M18.4254 11.3806H18.2808H18.4254Z" fill="#666666"/>
<path d="M18.2808 11.3806V11.3192V11.3806Z" fill="#666666"/>
<path d="M18.2808 11.3192L18.6289 11.3192L18.2808 11.3192Z" fill="#666666"/>
<path d="M18.7518 11.3192L18.8791 11.74L18.7518 11.3192Z" fill="#666666"/>
<path d="M18.8791 11.74H18.8812H18.8791Z" fill="#666666"/>
<path d="M18.8812 11.74L19.0044 11.3195L18.8812 11.74Z" fill="#666666"/>
<path d="M19.0044 11.3195H19.0953H19.0044Z" fill="#666666"/>
<path d="M19.0953 11.3195V11.8322V11.3195Z" fill="#666666"/>
<path d="M19.0953 11.8322H19.0346H19.0953Z" fill="#666666"/>
<path d="M19.0346 11.8322V11.4117V11.8322Z" fill="#666666"/>
<path d="M19.0346 11.4117H19.0325H19.0346Z" fill="#666666"/>
<path d="M19.0325 11.4117L18.9034 11.8322L19.0325 11.4117Z" fill="#666666"/>
<path d="M18.9034 11.8322H18.8475H18.9034Z" fill="#666666"/>
<path d="M18.8475 11.8322L18.7213 11.4117L18.8475 11.8322Z" fill="#666666"/>
<path d="M18.7213 11.4117H18.7184H18.7213Z" fill="#666666"/>
<path d="M18.7184 11.4117V11.8322V11.4117Z" fill="#666666"/>
<path d="M18.7184 11.8322H18.659H18.7184Z" fill="#666666"/>
<path d="M18.659 11.8322L18.6591 11.3192L18.659 11.8322Z" fill="#666666"/>
<path d="M18.7518 11.3192L18.8791 11.74H18.8812L19.0044 11.3195H19.0953V11.8322H19.0346V11.4117H19.0325L18.9034 11.8322H18.8475L18.7213 11.4117H18.7184V11.8322H18.659L18.6591 11.3192H18.7518Z" fill="#666666"/>
<path d="M18.6289 11.3803H18.4848V11.8323H18.4254V11.3806H18.2808V11.3192L18.6289 11.3192V11.3803Z" fill="#666666"/>
</svg>
