<svg width="33" height="11" viewBox="0 0 33 11" fill="none" xmlns="http://www.w3.org/2000/svg">
<path opacity="0.8" d="M7.63838 7.57541V9.79933C7.0489 10.5103 5.64031 10.9332 4.5916 10.9332C3.54422 10.9332 0.645142 10.0436 0.645142 5.86371C0.645142 1.68382 3.40457 0.783312 4.51774 0.783312C5.63226 0.783312 6.81928 1.06039 7.50679 1.68382V3.63978C7.50679 3.88405 7.26106 3.86218 7.26106 3.63978C7.24495 3.30619 6.58967 1.30648 4.95146 1.35023C3.18301 1.39945 1.98793 3.28614 1.98793 5.77439C1.98793 8.26264 3.14944 10.3991 4.90312 10.3316C5.47247 10.3097 6.06598 10.0655 6.35334 9.741L6.36005 7.57541C6.36005 6.9538 6.08209 6.73141 5.80414 6.73141C5.62286 6.73141 5.62286 6.37594 5.80414 6.37594H8.1943C8.37423 6.37594 8.37423 6.75328 8.1943 6.73141C7.91768 6.73141 7.63838 6.9538 7.63838 7.57541ZM23.7532 3.64161C23.7532 3.88587 23.5733 3.864 23.5733 3.64161C23.5558 3.30802 22.9019 1.24086 21.2637 1.28643C19.4952 1.33382 18.2988 3.28796 18.2988 5.77621C18.2988 8.26446 19.4455 10.4665 21.1979 10.4009C22.9502 10.3334 23.7854 7.97826 23.8512 7.66655C23.917 7.35484 24.0311 7.40041 24.0311 7.64468V9.46757C23.3114 10.1785 21.9512 10.935 20.9038 10.935C19.8564 10.935 16.9573 10.0454 16.9573 5.86553C16.9573 1.68382 19.7087 0.684875 20.8219 0.684875C21.9364 0.684875 23.0657 1.06221 23.7545 1.68382V3.64161H23.7532ZM16.3343 0.929143C16.5961 0.929143 16.5961 1.26273 16.3343 1.26273C16.0563 1.26273 15.7784 1.48512 15.7784 2.10673L15.7461 6.96474C15.7461 9.29075 14.3564 11.0006 12.6416 11.0006C10.9269 11.0006 9.58811 9.29075 9.58811 6.96474V2.10673C9.58811 1.4833 9.30881 1.26273 9.03086 1.26273C8.76901 1.26273 8.76901 0.929143 9.03086 0.929143H11.4546C11.7164 0.929143 11.7164 1.26273 11.4546 1.26273C11.1753 1.26273 10.8973 1.48512 10.8973 2.10673L10.8946 7.53166C10.8946 9.17226 11.8829 10.503 13.0914 10.503C14.3 10.503 15.2802 8.83867 15.2802 7.19989L15.2211 2.10673C15.2211 1.4833 14.9432 1.26273 14.6639 1.26273C14.4034 1.26273 14.4034 0.929143 14.6639 0.929143H16.3343ZM31.7616 3.64161C31.7616 3.88587 31.5816 3.864 31.5816 3.64161C31.5655 3.30802 30.9103 1.24086 29.2721 1.28643C27.5036 1.33382 26.3072 3.28796 26.3072 5.77621C26.3072 8.26446 27.4539 10.4665 29.2063 10.4009C30.9586 10.3353 31.7938 7.97826 31.8596 7.66655C31.9254 7.35484 32.0409 7.40041 32.0409 7.64468V9.46757C31.3198 10.1785 29.9609 10.935 28.9122 10.935C27.8648 10.935 24.9657 10.0454 24.9657 5.86553C24.9657 1.68382 27.7171 0.684875 28.8316 0.684875C29.9448 0.684875 31.0754 1.06221 31.7629 1.68382V3.64161H31.7616Z" fill="#718087"/>
</svg>
