<svg width="32" height="13" viewBox="0 0 32 13" fill="none" xmlns="http://www.w3.org/2000/svg">
<path d="M16.7992 3.6413C16.7992 4.07265 16.5127 4.41998 16.1572 4.41998C15.8017 4.41998 15.5154 4.07265 15.5154 3.6413C15.5154 3.20994 15.7919 2.86261 16.1572 2.86261C16.5228 2.87458 16.7992 3.22203 16.7992 3.6413ZM14.1526 5.21088V5.40262C14.1526 5.40262 13.8466 4.92315 13.1948 4.92315C12.1185 4.92315 11.2789 5.91763 11.2789 7.29535C11.2789 8.66122 12.1086 9.66755 13.1948 9.66755C13.8564 9.66755 14.1526 9.17636 14.1526 9.17636V9.37995C14.1526 9.47582 14.212 9.54751 14.2909 9.54751H15.0907V5.0426H14.2909C14.212 5.04296 14.1526 5.12698 14.1526 5.21088ZM14.1526 8.09809C14.0046 8.36177 13.7083 8.58941 13.3528 8.58941C12.7208 8.58941 12.2369 8.11018 12.2369 7.29535C12.2369 6.48064 12.7208 6.00141 13.3528 6.00141C13.6985 6.00141 14.0145 6.24102 14.1526 6.49261V8.09809ZM15.6833 5.04295H16.6312V9.54786H15.6833V5.04295ZM29.8443 4.92303C29.1925 4.92303 28.8863 5.4025 28.8863 5.4025V2.87458H27.9383V9.54786H28.7383C28.8173 9.54786 28.8764 9.46397 28.8764 9.38006V9.17648C28.8764 9.17648 29.1826 9.66768 29.8342 9.66768C30.9107 9.66768 31.7501 8.66158 31.7501 7.29571C31.7501 5.92984 30.9107 4.92303 29.8443 4.92303ZM29.6863 8.57732C29.3207 8.57732 29.0345 8.34992 28.8863 8.08612V6.48064C29.0345 6.24102 29.3504 5.98944 29.6863 5.98944C30.3182 5.98944 30.8021 6.46867 30.8021 7.28338C30.8021 8.09809 30.3183 8.57732 29.6863 8.57732ZM27.4447 6.87621V9.55984H26.4965V7.00786C26.4965 6.2652 26.299 5.96551 25.7661 5.96551C25.4798 5.96551 25.1835 6.14527 24.9955 6.40895V9.54799H24.0478V5.04308H24.798C24.8771 5.04308 24.9363 5.12698 24.9363 5.21088V5.40262C25.2129 5.05504 25.5782 4.92315 25.9435 4.92315C26.3583 4.92315 26.704 5.06713 26.9805 5.35462C27.3161 5.6901 27.4447 6.12134 27.4447 6.87621ZM21.7465 4.92303C21.0949 4.92303 20.7887 5.4025 20.7887 5.4025V2.87458H19.8408V9.54786H20.6405C20.7196 9.54786 20.7789 9.46397 20.7789 9.38006V9.17648C20.7789 9.17648 21.0851 9.66768 21.7367 9.66768C22.8132 9.66768 23.6525 8.66158 23.6525 7.29571C23.6624 5.92972 22.823 4.92303 21.7465 4.92303ZM21.5885 8.57732C21.2232 8.57732 20.9369 8.34992 20.7887 8.08612V6.48064C20.9369 6.24102 21.2529 5.98944 21.5885 5.98944C22.2207 5.98944 22.7044 6.46867 22.7044 7.28338C22.7044 8.09809 22.2207 8.57732 21.5885 8.57732ZM19.0211 4.92303C19.3074 4.92303 19.4555 4.98311 19.4555 4.98311V6.04928C19.4555 6.04928 18.6655 5.72577 18.1719 6.40883V9.55971H17.2237V5.04295H18.0237C18.1027 5.04295 18.1618 5.12686 18.1618 5.21076V5.4025C18.3398 5.15079 18.7249 4.92303 19.0211 4.92303ZM9.17568 9.14045C9.12635 8.99671 9.07693 8.84099 9.02761 8.7091C8.94849 8.49354 8.86947 8.28971 8.80051 8.09809L8.79064 8.08612C8.10915 6.2889 7.37853 4.46798 6.60816 2.67099L6.57856 2.59894C6.49754 2.41252 6.41858 2.2248 6.3417 2.03581C6.24285 1.82001 6.1442 1.59261 5.98616 1.37681C5.67018 0.897582 5.21588 0.633911 4.73209 0.633911C4.23824 0.633911 3.79391 0.897584 3.46816 1.35275C3.31999 1.56831 3.21127 1.79596 3.11262 2.01175C3.03555 2.20062 2.95659 2.38834 2.87575 2.57488L2.84606 2.64693C2.08565 4.44392 1.34507 6.26496 0.663677 8.06207L0.653715 8.08589C0.584658 8.27787 0.505538 8.48145 0.426518 8.69689C0.377192 8.82878 0.327866 8.97253 0.27854 9.12824C0.150095 9.57144 0.110533 9.99083 0.160057 10.4223C0.268673 11.3209 0.762328 12.0754 1.44382 12.4111C1.70061 12.543 1.96727 12.6029 2.24369 12.6029C2.32271 12.6029 2.42136 12.5909 2.50048 12.5788C2.82643 12.531 3.16214 12.3993 3.48809 12.1716C3.89296 11.896 4.27809 11.5008 4.71256 10.9257C5.14702 11.5008 5.54203 11.896 5.93703 12.1716C6.26308 12.3993 6.59869 12.531 6.92454 12.5788C7.00356 12.591 7.10241 12.6029 7.18143 12.6029C7.45795 12.6029 7.73437 12.543 7.9812 12.4111C8.67256 12.0754 9.15634 11.3089 9.26506 10.4223C9.34349 10.003 9.30403 9.58389 9.17568 9.14045ZM4.72213 9.76342C4.18882 8.94871 3.84314 8.18199 3.72475 7.5352C3.67543 7.25956 3.66547 7.01995 3.69516 6.80427C3.71479 6.61253 3.77418 6.44473 3.8532 6.30099C4.04084 5.97771 4.35682 5.77388 4.72223 5.77388C5.08773 5.77388 5.41358 5.96562 5.59135 6.30099C5.67037 6.44473 5.72956 6.61265 5.74949 6.80427C5.77899 7.02007 5.76912 7.27153 5.7198 7.5352C5.60092 8.17003 5.25525 8.93686 4.72213 9.76342ZM8.6621 10.3266C8.59304 10.9495 8.24736 11.4888 7.76357 11.7284C7.52661 11.8481 7.26972 11.8842 7.01313 11.8481C6.7663 11.8121 6.51927 11.7162 6.26268 11.5367C5.90714 11.2969 5.5517 10.9257 5.13686 10.3744C5.78856 9.40412 6.18356 8.51736 6.33174 7.72683C6.40089 7.35532 6.41086 7.01995 6.38106 6.70828C6.3417 6.40883 6.25272 6.13319 6.1145 5.89357C5.80819 5.35426 5.29461 5.04295 4.72203 5.04295C4.14945 5.04295 3.63587 5.36647 3.32975 5.89357C3.19154 6.13319 3.10255 6.40883 3.06309 6.70828C3.02363 7.01995 3.0334 7.36728 3.11242 7.72683C3.2605 8.51736 3.66537 9.41597 4.3072 10.3864C3.90233 10.9376 3.53692 11.3091 3.18138 11.5487C2.92459 11.7285 2.67786 11.8243 2.43103 11.8601C2.16447 11.8961 1.90758 11.8481 1.68049 11.7404C1.1967 11.5008 0.851018 10.9615 0.781961 10.3385C0.752366 10.0391 0.771998 9.7396 0.870847 9.40412C0.900344 9.28419 0.949867 9.16451 0.999193 9.02077C1.06835 8.82903 1.14717 8.6252 1.22629 8.42161L1.23626 8.39779C1.91755 6.61253 2.64826 4.79149 3.40867 3.01844L3.43827 2.94639C3.51739 2.76686 3.59641 2.57512 3.67533 2.39535C3.75435 2.20361 3.84314 2.02384 3.95185 1.86801C4.15922 1.58076 4.43564 1.42481 4.74186 1.42481C5.04807 1.42481 5.3245 1.58076 5.53187 1.86801C5.64058 2.0242 5.72937 2.20397 5.80839 2.39535C5.88751 2.57512 5.96653 2.76686 6.04535 2.94639L6.07504 3.01844C6.82386 4.79886 7.54487 6.59629 8.2377 8.40976V8.42173C8.31681 8.61371 8.38587 8.82915 8.46489 9.02112C8.51422 9.16463 8.56364 9.28432 8.59324 9.40425C8.67206 9.71543 8.70166 10.0151 8.6621 10.3266Z" fill="#666666"/>
</svg>
