<svg width="33" height="10" viewBox="0 0 33 10" fill="none" xmlns="http://www.w3.org/2000/svg">
<path d="M32.9999 4.41592V3.67692H32.2849V2.52804L32.2609 2.53759L31.5761 2.80646V3.67692H30.516V3.19167C30.5058 3.00796 30.5472 2.82565 30.6328 2.67779C30.6741 2.61973 30.7249 2.57419 30.7815 2.54447C30.8382 2.51475 30.8993 2.50159 30.9604 2.50597C31.0678 2.5078 31.1737 2.53871 31.2711 2.59665L31.2975 2.61177V1.83418L31.2851 1.82842C31.1565 1.7776 31.0223 1.75462 30.8879 1.7604C30.6917 1.75643 30.498 1.81615 30.3246 1.93402C30.1617 2.04647 30.0276 2.21673 29.9381 2.42443C29.8451 2.64522 29.798 2.89301 29.8013 3.14394V3.67692H29.3034V4.41592H29.8013V7.52883H30.516V4.41592H31.5761V6.39348C31.5761 7.20885 31.8755 7.62111 32.4662 7.62111C32.5682 7.62037 32.6699 7.60591 32.7696 7.57795C32.8462 7.56127 32.9205 7.53102 32.9906 7.48806L33.0001 7.48091V6.73514L32.9709 6.7598C32.9266 6.79582 32.8781 6.82266 32.8273 6.83935C32.7815 6.85753 32.734 6.8679 32.6861 6.87017C32.6304 6.87642 32.5743 6.86693 32.5217 6.84236C32.4692 6.8178 32.4214 6.77876 32.3819 6.72798C32.3067 6.58246 32.2724 6.4083 32.2849 6.23439V4.41592H32.9999ZM27.7069 6.87077C27.5929 6.87841 27.4789 6.85289 27.3736 6.7961C27.2684 6.73932 27.1744 6.65274 27.0988 6.54283C26.9421 6.27764 26.8646 5.94914 26.8803 5.61689C26.8637 5.2769 26.9411 4.94028 27.0988 4.6663C27.1728 4.55559 27.2655 4.46802 27.3699 4.4103C27.4743 4.35257 27.5875 4.32619 27.701 4.33319C27.8111 4.3264 27.921 4.35148 28.0225 4.40656C28.124 4.46164 28.2145 4.54531 28.2874 4.65138C28.444 4.92293 28.5199 5.25725 28.5016 5.59422C28.5197 5.93239 28.4487 6.26856 28.3001 6.5488C28.2277 6.65806 28.1363 6.74404 28.0333 6.79988C27.9302 6.85571 27.8185 6.88025 27.7069 6.87077ZM27.7387 3.58265C27.5248 3.56756 27.3108 3.60886 27.1099 3.70402C26.909 3.79917 26.7254 3.94616 26.5704 4.13591C26.4255 4.33904 26.3135 4.57717 26.241 4.83643C26.1685 5.09569 26.137 5.37087 26.1483 5.64593C26.138 5.90942 26.1692 6.17286 26.24 6.42054C26.3108 6.66822 26.4198 6.89507 26.5603 7.08754C26.7068 7.26807 26.8805 7.4084 27.0706 7.49996C27.2608 7.59153 27.4635 7.63241 27.6663 7.62011C27.8771 7.63341 28.0877 7.59043 28.2848 7.4939C28.4819 7.39736 28.6613 7.24938 28.8115 7.0593C28.9553 6.85816 29.0666 6.6225 29.139 6.36589C29.2115 6.10929 29.2436 5.83682 29.2336 5.56419C29.2562 5.03218 29.1138 4.51031 28.8377 4.11244C28.6931 3.93134 28.5207 3.79078 28.3315 3.69968C28.1423 3.60858 27.9405 3.56893 27.7387 3.58325V3.58265ZM24.9958 3.58325C24.6986 3.56711 24.4062 3.68308 24.1678 3.91158C24.0654 4.01142 23.9827 4.14092 23.9267 4.28953C23.8706 4.43814 23.8427 4.60164 23.8452 4.76672C23.8427 4.93025 23.8664 5.0927 23.9148 5.24401C23.9628 5.38341 24.036 5.50611 24.1283 5.60198C24.2614 5.73038 24.4074 5.83526 24.5622 5.91381C24.686 5.9762 24.8067 6.04833 24.9236 6.12978C24.9851 6.17096 25.0393 6.22804 25.0828 6.29743C25.1146 6.36282 25.13 6.43918 25.1269 6.51619C25.1269 6.77472 24.976 6.9008 24.6651 6.9008C24.532 6.89673 24.4001 6.86579 24.2745 6.80912C24.1315 6.74917 23.9965 6.66137 23.8743 6.5488L23.8446 6.52156V7.40474L23.8554 7.4113C23.977 7.4794 24.104 7.52976 24.2343 7.56145C24.3673 7.59867 24.5028 7.61866 24.6389 7.62111C24.9511 7.64204 25.2595 7.5255 25.5131 7.29079C25.6173 7.1882 25.7011 7.05545 25.7576 6.90338C25.8142 6.7513 25.8419 6.58421 25.8385 6.41576C25.8437 6.17538 25.7815 5.94058 25.6634 5.75392C25.498 5.5335 25.2941 5.36682 25.0685 5.26768C24.9166 5.20239 24.7736 5.10697 24.6447 4.98489C24.6153 4.94564 24.5925 4.89903 24.5778 4.84797C24.5631 4.79692 24.5567 4.74252 24.5591 4.68817C24.5585 4.63457 24.5681 4.58157 24.587 4.53376C24.6059 4.48595 24.6335 4.44476 24.6676 4.41373C24.7567 4.33467 24.8637 4.29591 24.9718 4.30356C25.0946 4.30431 25.2166 4.32836 25.334 4.37495C25.4461 4.41692 25.5528 4.48035 25.6502 4.56308L25.6794 4.58874V3.75209L25.6682 3.74592C25.5647 3.69299 25.457 3.65446 25.3471 3.63098C25.2311 3.6018 25.1133 3.58616 24.995 3.58424L24.9958 3.58325ZM21.9821 6.87077C21.868 6.87841 21.7541 6.85289 21.6488 6.7961C21.5435 6.73932 21.4496 6.65274 21.374 6.54283C21.2175 6.27787 21.14 5.94977 21.1556 5.61789C21.139 5.27789 21.2164 4.94127 21.3741 4.66729C21.4481 4.55654 21.5408 4.46896 21.6452 4.41123C21.7495 4.35349 21.8628 4.32714 21.9763 4.33418C22.0864 4.3274 22.1963 4.35247 22.2978 4.40755C22.3993 4.46263 22.4898 4.5463 22.5627 4.65237C22.7193 4.92391 22.7952 5.25824 22.7769 5.59522C22.795 5.93339 22.724 6.26955 22.5754 6.54979C22.5029 6.65906 22.4116 6.74506 22.3085 6.80089C22.2055 6.85673 22.0938 6.88087 21.9822 6.87137L21.9821 6.87077ZM22.0141 3.58365C21.8003 3.56853 21.5863 3.60982 21.3853 3.70498C21.1844 3.80014 21.0008 3.94713 20.8459 4.1369C20.7009 4.34001 20.5889 4.57815 20.5164 4.8374C20.4439 5.09666 20.4123 5.37185 20.4236 5.64692C20.4133 5.91043 20.4445 6.17389 20.5154 6.42157C20.5862 6.66926 20.6952 6.89609 20.8358 7.08853C20.9823 7.26907 21.1559 7.40941 21.346 7.50097C21.5362 7.59254 21.7389 7.63342 21.9418 7.62111C22.1525 7.63439 22.3631 7.5914 22.5602 7.49487C22.7573 7.39834 22.9367 7.25036 23.087 7.0603C23.2307 6.85915 23.342 6.62349 23.4145 6.36689C23.4869 6.11028 23.5191 5.83782 23.5091 5.56519C23.5316 5.03314 23.3892 4.51125 23.113 4.11344C22.9684 3.93236 22.796 3.79181 22.6069 3.70072C22.4177 3.60962 22.2159 3.56996 22.0141 3.58424V3.58365ZM19.3387 4.34412V3.67692H18.6327V7.52883H19.3387V5.55823C19.3286 5.2685 19.3902 4.9821 19.5147 4.74008C19.5646 4.64357 19.6326 4.56468 19.7125 4.51062C19.7923 4.45656 19.8814 4.42906 19.9717 4.43063C20.0435 4.43203 20.1149 4.44541 20.184 4.47041C20.2422 4.487 20.2978 4.5159 20.3486 4.55592L20.3783 4.58357V3.67035L20.3669 3.66399C20.2783 3.62336 20.1844 3.60506 20.0904 3.6101C19.9179 3.60792 19.7504 3.68494 19.6182 3.82726C19.4945 3.96672 19.4009 4.14483 19.3466 4.34432L19.3387 4.34412ZM17.3683 3.58404C17.0692 3.57631 16.7735 3.66754 16.5098 3.84894C16.2673 4.02019 16.0701 4.28041 15.9436 4.59629C15.8101 4.93974 15.7434 5.31951 15.7491 5.7032C15.7456 6.0492 15.8106 6.39068 15.9381 6.69557C16.0592 6.98454 16.2426 7.22257 16.4664 7.38107C16.7034 7.54479 16.9692 7.62771 17.2383 7.6219C17.535 7.63413 17.8289 7.54585 18.0906 7.36596L18.0999 7.3592V6.52891L18.0701 6.55676C17.9645 6.6551 17.8481 6.7329 17.7247 6.78764C17.6164 6.83954 17.502 6.86797 17.3864 6.87177C17.2643 6.87939 17.1424 6.8539 17.0285 6.79695C16.9146 6.73999 16.8114 6.65286 16.7255 6.54124C16.5544 6.28831 16.4669 5.95967 16.4817 5.62525C16.4688 5.28149 16.5598 4.94459 16.7359 4.68499C16.8203 4.56919 16.9231 4.47796 17.0373 4.41745C17.1516 4.35693 17.2746 4.32854 17.3981 4.33418C17.6414 4.33908 17.877 4.4443 18.0701 4.63428L18.0997 4.66192V3.78689L18.0901 3.77993C17.9873 3.71213 17.8772 3.66434 17.7635 3.63814C17.6337 3.60286 17.5014 3.58467 17.3688 3.58384L17.3683 3.58404ZM15.2631 3.67672H14.5571V7.52883H15.2631V3.67672ZM14.9174 2.03584C14.8055 2.03356 14.6974 2.08793 14.6166 2.18718C14.5759 2.23508 14.5436 2.29355 14.5219 2.3587C14.5002 2.42385 14.4895 2.49418 14.4906 2.56503C14.4894 2.63458 14.4998 2.70366 14.5212 2.76758C14.5426 2.8315 14.5744 2.88878 14.6146 2.93553C14.6965 3.03329 14.8049 3.08622 14.9168 3.08309C15.0289 3.08596 15.1376 3.03317 15.2202 2.93573C15.2608 2.88931 15.2932 2.83214 15.315 2.76815C15.3368 2.70416 15.3475 2.63486 15.3465 2.56503C15.347 2.49526 15.3364 2.42609 15.3153 2.3618C15.2941 2.29752 15.2629 2.2395 15.2236 2.19135C15.1832 2.14024 15.1352 2.10013 15.0825 2.0734C15.0297 2.04668 14.9733 2.0339 14.9166 2.03584H14.9174ZM13.155 3.39253V7.52903H13.8755V2.15397H12.8783L11.6107 6.14629L10.3806 2.15397H9.34236V7.52863H10.0196V3.39213H10.0428L11.3417 7.52863H11.8531L13.1319 3.39213L13.155 3.39253Z" fill="#718087"/>
<path d="M3.58015 4.62011H0.258789V0.357727H3.58015V4.62011Z" fill="#718087"/>
<path d="M7.24739 4.62011H3.92603V0.357727H7.24739V4.62011Z" fill="#718087"/>
<path d="M3.58015 9.32794H0.258789V5.06555H3.58015V9.32794Z" fill="#718087"/>
<path d="M7.24739 9.32794H3.92603V5.06555H7.24739V9.32794Z" fill="#718087"/>
</svg>
