<svg width="25" height="8" viewBox="0 0 25 8" fill="none" xmlns="http://www.w3.org/2000/svg">
<path d="M4.20358 0.2547H5.11778V4.44932C5.11778 6.65625 4.14297 7.43087 2.72873 7.43087C1.31954 7.43087 0.344727 6.65625 0.344727 4.44932V0.422777C0.344727 0.305854 0.385133 0.2547 0.465947 0.2547H1.38015V4.38355C1.38015 5.70625 1.78422 6.25433 2.72873 6.25433C3.67829 6.25433 4.08236 5.70625 4.08236 4.38355V0.422777C4.08236 0.305854 4.12277 0.2547 4.20358 0.2547ZM14.5528 1.40201V3.17048H16.8661C16.9065 3.17048 16.9216 3.19971 16.9065 3.25817L16.6539 4.16432C16.6287 4.24471 16.5933 4.28125 16.5176 4.28125H15.1589C14.7144 4.28125 14.5528 4.47856 14.5528 4.90971V6.15933H17.6843C17.7247 6.15933 17.7399 6.18856 17.7247 6.24702L17.4621 7.18971C17.4368 7.2701 17.4015 7.30664 17.3257 7.30664H13.8962C13.6335 7.30664 13.5325 7.1751 13.5325 6.8901V0.744316C13.5325 0.400854 13.6638 0.2547 14.0073 0.2547H17.6843C17.7247 0.2547 17.7399 0.283931 17.7247 0.335084L17.4621 1.28509C17.4368 1.36547 17.4015 1.40201 17.3257 1.40201H14.5528ZM11.6485 5.35548C11.6485 6.76587 10.9616 7.30664 9.99691 7.30664H7.44118C7.17348 7.30664 7.07751 7.1751 7.07751 6.8901V0.744316C7.07751 0.400854 7.20379 0.2547 7.5523 0.2547H9.6282C10.5373 0.2547 11.4162 0.481239 11.4162 2.04509C11.4162 2.7174 11.2495 3.2874 10.8505 3.58701C11.401 3.79894 11.6485 4.51509 11.6485 5.35548ZM8.08263 3.1924H9.70396C10.2393 3.1924 10.3909 2.89278 10.3909 2.27893C10.3909 1.66509 10.2393 1.37278 9.70396 1.37278H8.08263V3.1924ZM10.6232 5.22394C10.6232 4.57356 10.4666 4.25202 9.89084 4.25202H8.69379C8.24931 4.25202 8.08263 4.44932 8.08263 4.88048V6.18856H9.89084C10.4666 6.18856 10.6232 5.86702 10.6232 5.22394ZM24.0585 7.30664H23.1291C23.0534 7.30664 23.0231 7.26279 22.9928 7.18971L22.0078 4.6174H21.1037C20.6593 4.6174 20.4926 4.81471 20.4926 5.24586V7.30664H19.6036C19.5228 7.30664 19.4824 7.24818 19.4824 7.13856V0.744316C19.4824 0.400854 19.6137 0.2547 19.9572 0.2547H22.0432C23.2605 0.2547 23.9928 0.715085 23.9928 2.42509C23.9928 3.74778 23.5534 4.26663 23.0079 4.47125L24.1039 7.18241C24.1241 7.22625 24.1241 7.30664 24.0585 7.30664ZM22.9675 2.45432C22.9675 1.73816 22.8311 1.38739 22.1947 1.38739H20.4926V3.52125H22.1947C22.8311 3.52125 22.9675 3.17778 22.9675 2.45432Z" fill="#718087"/>
</svg>
