<svg width="19" height="9" viewBox="0 0 19 9" fill="none" xmlns="http://www.w3.org/2000/svg">
<path fill-rule="evenodd" clip-rule="evenodd" d="M6.22026 2.99312C6.22026 2.99312 6.71004 2.21479 7.84728 2.22202C8.98489 2.22925 10.0396 3.14729 10.015 4.72737C10.0126 4.87323 10.0022 5.01251 9.98449 5.14588C10.2888 4.15797 11.7916 4.02307 12.2404 4.01957C12.5045 4.01957 13.2966 4.01606 13.2966 4.01606C13.3007 3.37461 13.1322 2.94538 12.2099 2.9261C11.4238 2.90858 11.2218 3.38184 11.1742 3.56755H10.211C10.4565 2.04354 12.2724 2.22925 12.2724 2.22925C14.164 2.3186 14.2106 3.49178 14.2324 4.04431L14.2349 4.10344V7.15564L13.3966 7.16089L13.3591 6.33921C13.0017 6.85955 12.5208 7.15016 11.6766 7.15564C10.8549 7.16067 9.81099 6.74939 9.93072 5.44219C9.67025 6.55996 8.83841 7.15564 7.82832 7.15564C6.62154 7.15564 6.20873 6.37797 6.20873 6.37797L6.1708 7.15564H5.3095V4.91308H1.75461C1.75461 4.91308 1.80556 6.43754 3.1042 6.46667C4.11388 6.48835 4.29685 5.66841 4.29685 5.66841L5.22955 5.66469C5.22955 5.66469 5.13063 7.15564 3.10011 7.15564C0.737861 7.15564 0.848311 4.77993 0.848311 4.77993C0.836792 4.25236 0.845338 2.22202 3.07816 2.22202C4.94675 2.22202 5.26528 3.76049 5.3095 4.511V0.427979H6.22026V2.99312ZM6.22621 4.7081C6.22621 4.7081 6.20279 6.47258 7.63976 6.45155C9.07489 6.43031 9.07786 4.74489 9.07786 4.74489C9.07786 4.74489 9.09944 2.88449 7.63679 2.92807C6.17415 2.97187 6.22621 4.7081 6.22621 4.7081ZM3.13321 2.91756C1.84907 2.91756 1.78511 4.24755 1.78511 4.24755H4.41176C4.41176 4.24755 4.41176 2.91581 3.13321 2.91756ZM10.8674 5.65089C10.9213 6.4901 11.8351 6.48813 11.8351 6.48813C13.4721 6.51244 13.3052 4.71708 13.3063 4.71708L12.2724 4.71839C12.2724 4.71839 10.8109 4.75519 10.8674 5.65089Z" fill="#666666"/>
<path d="M13.654 2.22202H14.6968L16.2237 5.89267L17.7548 2.22202H18.6976L15.9359 8.94968H14.9266L15.7258 6.94715L13.654 2.22202Z" fill="#666666"/>
</svg>
